<svg width="1080" height="1080" viewBox="0 0 1080 1080" fill="none" xmlns="http://www.w3.org/2000/svg">
<g clip-path="url(#clip0_3147_3)">
<path d="M831.024 586.928C833.936 585.957 838.304 585.472 844.128 585.472C860.629 585.472 868.88 596.149 868.88 617.504C868.88 629.152 866.211 639.101 860.872 647.352C856.019 655.117 848.253 659.971 837.576 661.912C793.411 670.163 749.973 679.384 707.264 689.576L705.08 707.048C691.491 802.659 664.312 873.275 623.544 918.896C583.261 965.003 532.787 988.056 472.12 988.056C431.837 988.056 400.533 978.107 378.208 958.208C356.368 938.795 345.448 913.8 345.448 883.224C345.448 832.264 368.259 786.885 413.88 747.088C459.501 707.291 528.661 672.104 621.36 641.528L635.92 538.88C637.861 527.232 640.288 511.701 643.2 492.288C620.389 552.469 591.269 597.363 555.84 626.968C520.411 656.573 480.856 671.376 437.176 671.376C395.437 671.376 363.648 658.757 341.808 633.52C319.968 607.797 309.048 574.795 309.048 534.512C309.048 516.555 310.989 496.899 314.872 475.544C318.755 453.704 324.821 424.341 333.072 387.456C340.352 353.968 345.691 327.275 349.088 307.376C352.971 287.477 354.912 269.763 354.912 254.232C354.912 230.936 345.933 219.288 327.976 219.288C313.901 219.288 297.157 226.325 277.744 240.4C258.816 253.989 238.675 275.101 217.32 303.736C210.525 312.957 203.003 317.568 194.752 317.568C187.957 317.568 181.891 314.413 176.552 308.104C171.699 301.309 169.272 293.787 169.272 285.536C169.272 270.491 176.067 253.504 189.656 234.576C239.16 166.629 297.157 132.656 363.648 132.656C393.253 132.656 416.307 141.635 432.808 159.592C449.795 177.549 458.288 204 458.288 238.944C458.288 264.181 455.861 290.147 451.008 316.84C446.64 343.048 439.845 376.536 430.624 417.304C424.8 441.571 420.432 461.227 417.52 476.272C414.608 490.832 413.152 502.965 413.152 512.672C413.152 537.424 417.52 555.139 426.256 565.816C434.992 576.493 450.28 581.832 472.12 581.832C498.328 581.832 525.021 567.515 552.2 538.88C579.864 509.76 604.616 465.837 626.456 407.112C648.781 348.387 664.797 276.557 674.504 191.624C676.931 170.269 682.512 155.224 691.248 146.488C699.984 137.267 712.603 132.656 729.104 132.656C763.077 132.656 780.064 149.643 780.064 183.616C780.064 189.44 779.821 194.051 779.336 197.448C769.144 269.763 759.68 335.04 750.944 393.28C746.091 428.224 740.752 464.139 734.928 501.024C729.589 537.909 724.251 575.28 718.912 613.136C754.341 603.429 791.712 594.693 831.024 586.928ZM610.44 717.968C492.989 758.736 434.264 808.24 434.264 866.48C434.264 880.069 438.389 891.232 446.64 899.968C455.376 909.189 467.509 913.8 483.04 913.8C550.501 913.8 592.725 850.221 609.712 723.064L610.44 717.968Z" fill="#0046FE"/>
</g>
<defs>
<clipPath id="clip0_3147_3">
<rect width="1080" height="1080" fill="white"/>
</clipPath>
</defs>
</svg>
