<svg width="55" height="55" viewBox="0 0 55 55" fill="none" xmlns="http://www.w3.org/2000/svg">
<path d="M39.499 32.2029C39.6026 32.1684 39.7578 32.1511 39.9649 32.1511C40.5515 32.1511 40.8448 32.5307 40.8448 33.2898C40.8448 33.7039 40.7499 34.0576 40.5601 34.3509C40.3876 34.627 40.1115 34.7995 39.732 34.8685C38.1619 35.1618 36.6177 35.4896 35.0994 35.852L35.0218 36.4731C34.5387 39.872 33.5725 42.3823 32.1232 44.0042C30.6912 45.6432 28.8969 46.4628 26.7402 46.4628C25.3082 46.4628 24.1953 46.1091 23.4017 45.4017C22.6253 44.7115 22.2371 43.823 22.2371 42.736C22.2371 40.9244 23.048 39.3113 24.6698 37.8965C26.2916 36.4817 28.7502 35.2308 32.0456 34.1439L32.5632 30.4948C32.6322 30.0807 32.7185 29.5286 32.822 28.8385C32.0111 30.9779 30.9759 32.5738 29.7164 33.6263C28.4569 34.6787 27.0508 35.205 25.498 35.205C24.0142 35.205 22.8841 34.7564 22.1077 33.8592C21.3313 32.9448 20.9431 31.7715 20.9431 30.3395C20.9431 29.7011 21.0121 29.0024 21.1501 28.2432C21.2881 27.4668 21.5038 26.423 21.7971 25.1118C22.0559 23.9213 22.2457 22.9723 22.3665 22.265C22.5045 21.5576 22.5735 20.9278 22.5735 20.3757C22.5735 19.5476 22.2543 19.1335 21.616 19.1335C21.1156 19.1335 20.5204 19.3837 19.8302 19.884C19.1574 20.3671 18.4413 21.1176 17.6822 22.1356C17.4407 22.4634 17.1732 22.6273 16.8799 22.6273C16.6384 22.6273 16.4227 22.5151 16.2329 22.2908C16.0604 22.0493 15.9741 21.7819 15.9741 21.4886C15.9741 20.9537 16.2157 20.3498 16.6988 19.677C18.4586 17.2615 20.5204 16.0538 22.8841 16.0538C23.9365 16.0538 24.7561 16.3729 25.3427 17.0113C25.9465 17.6497 26.2485 18.59 26.2485 19.8322C26.2485 20.7294 26.1622 21.6525 25.9897 22.6014C25.8344 23.5331 25.5929 24.7236 25.265 26.1728C25.058 27.0355 24.9027 27.7343 24.7992 28.2691C24.6957 28.7867 24.6439 29.2181 24.6439 29.5631C24.6439 30.443 24.7992 31.0728 25.1098 31.4524C25.4203 31.8319 25.9638 32.0217 26.7402 32.0217C27.6719 32.0217 28.6208 31.5127 29.587 30.4948C30.5704 29.4596 31.4504 27.8982 32.2268 25.8105C33.0204 23.7229 33.5898 21.1694 33.9348 18.15C34.0211 17.3909 34.2195 16.856 34.5301 16.5455C34.8406 16.2177 35.2892 16.0538 35.8758 16.0538C37.0836 16.0538 37.6874 16.6576 37.6874 17.8654C37.6874 18.0724 37.6788 18.2363 37.6616 18.3571C37.2992 20.9278 36.9628 23.2484 36.6522 25.3188C36.4797 26.561 36.2899 27.8378 36.0829 29.149C35.8931 30.4603 35.7033 31.7888 35.5135 33.1346C36.773 32.7895 38.1015 32.4789 39.499 32.2029ZM31.6574 36.8613C27.4821 38.3106 25.3944 40.0704 25.3944 42.1408C25.3944 42.6239 25.5411 43.0207 25.8344 43.3313C26.145 43.6591 26.5763 43.823 27.1284 43.823C29.5266 43.823 31.0277 41.5628 31.6315 37.0424L31.6574 36.8613Z" fill="white"/>
</svg>
